<svg width="20" height="19" viewBox="0 0 20 19" fill="none" xmlns="http://www.w3.org/2000/svg">
<path d="M18.7562 10.4569L3.93143 10.5321L8.49651 15.959C8.70998 16.2132 8.81372 16.5418 8.78492 16.8725C8.75613 17.2031 8.59714 17.5088 8.34295 17.7223C8.08876 17.9358 7.76018 18.0395 7.4295 18.0107C7.09882 17.9819 6.79312 17.8229 6.57965 17.5687L0.29169 10.1005C0.249339 10.0411 0.21142 9.97863 0.178241 9.91362C0.177924 9.85112 0.177734 9.81362 0.0899179 9.75156C0.0325335 9.60853 0.00209438 9.45612 0.000136329 9.30201C0.000531045 9.1479 0.0294225 8.99519 0.085353 8.85158C0.085036 8.78908 0.0848454 8.75158 0.172027 8.68863C0.204546 8.62329 0.241829 8.56043 0.283575 8.50057L6.49545 0.968962C6.61226 0.827266 6.75886 0.713045 6.92482 0.634425C7.09078 0.555806 7.27202 0.514719 7.45566 0.514085C7.74772 0.512034 8.03127 0.612316 8.25711 0.797524C8.38421 0.901818 8.48949 1.03016 8.56692 1.17521C8.64434 1.32025 8.6924 1.47914 8.70832 1.64278C8.72425 1.80642 8.70773 1.9716 8.65972 2.12885C8.61171 2.2861 8.53316 2.43233 8.42854 2.55918L3.91875 8.03212L18.7436 7.95693C19.0751 7.95525 19.3937 8.08533 19.6293 8.31856C19.8649 8.55179 19.9982 8.86906 19.9999 9.20057C20.0016 9.53209 19.8715 9.85069 19.6383 10.0863C19.405 10.3219 19.0878 10.4552 18.7562 10.4569Z" fill="white"/>
</svg>
